<svg width="95" height="95" viewBox="0 0 95 95" fill="none" xmlns="http://www.w3.org/2000/svg">
<path d="M83.9462 85.8634H47.4998C46.7064 85.8634 46.0629 85.2201 46.0629 84.4264C46.0629 83.6326 46.7062 82.9895 47.4998 82.9895H82.5092V76.9843C82.5092 76.1909 83.1526 75.5474 83.9462 75.5474C84.74 75.5474 85.3832 76.1907 85.3832 76.9843V84.4266C85.383 85.2201 84.7398 85.8634 83.9462 85.8634Z" fill="white"/>
<path d="M47.4998 85.8636H11.0537C10.26 85.8636 9.6167 85.2203 9.6167 84.4266V76.9843C9.6167 76.1909 10.26 75.5474 11.0537 75.5474C11.8475 75.5474 12.4906 76.1907 12.4906 76.9843V82.9897H47.5C48.2939 82.9897 48.937 83.6328 48.937 84.4266C48.9368 85.2203 48.2937 85.8636 47.4998 85.8636Z" fill="white"/>
<path d="M55.1992 60.3731H39.8009C39.4089 60.3731 39.0338 60.2131 38.7631 59.93C38.4923 59.6473 38.3483 59.2661 38.365 58.8743C38.9111 46.1341 29.1892 41.1223 29.091 41.0734C28.6044 40.8299 28.2968 40.3326 28.2968 39.7883V31.8924C28.2968 31.3481 28.6044 30.8509 29.091 30.6073C35.6251 27.34 41.4322 21.0334 43.8844 14.5397C44.0953 13.9808 44.6309 13.6108 45.2286 13.6108H49.7717C50.3694 13.6108 50.9049 13.9808 51.1159 14.5397C53.5683 21.0332 59.3752 27.34 65.9093 30.6073C66.3959 30.8509 66.7034 31.3481 66.7034 31.8924V39.7883C66.7034 40.3326 66.3959 40.8299 65.9093 41.0734C65.5119 41.275 56.0919 46.2032 56.6353 58.8743C56.652 59.2661 56.5076 59.6471 56.2372 59.93C55.9659 60.2129 55.5908 60.3731 55.1992 60.3731ZM41.2601 57.4991H53.7398C53.873 46.0381 61.3269 40.4947 63.8296 38.9546V32.7651C57.3194 29.2554 51.564 23.0185 48.7995 16.4844H46.2005C43.4363 23.0185 37.6809 29.2554 31.1703 32.7651V38.9546C33.6732 40.4949 41.1271 46.0381 41.2601 57.4991Z" fill="white"/>
<path d="M47.4998 16.4848C46.7064 16.4848 46.0629 15.8416 46.0629 15.0478V10.5737C46.0629 9.78025 46.7062 9.13672 47.4998 9.13672C48.2937 9.13672 48.9368 9.78006 48.9368 10.5737V15.0478C48.9368 15.8416 48.2937 16.4848 47.4998 16.4848Z" fill="white"/>
<path d="M52.1885 43.9891C51.3949 43.9891 50.7515 43.346 50.7515 42.5521V37.0752C50.7515 35.2818 49.2929 33.8232 47.4999 33.8232C45.7072 33.8232 44.2482 35.2818 44.2482 37.0752V42.5521C44.2482 43.346 43.605 43.9891 42.8112 43.9891C42.0178 43.9891 41.3746 43.346 41.3746 42.5521V37.0752C41.3746 33.6972 44.1226 30.9492 47.4999 30.9492C50.8773 30.9492 53.6253 33.6972 53.6253 37.0752V42.5521C53.6253 43.346 52.9821 43.9891 52.1885 43.9891Z" fill="white"/>
<path d="M47.4998 85.8636C47.2912 85.8636 47.0818 85.818 46.8863 85.7261C46.3834 85.4885 46.0629 84.9824 46.0629 84.4266V69.2817C46.0629 68.4883 46.7062 67.8448 47.4998 67.8448C48.2937 67.8448 48.9368 68.4881 48.9368 69.2817V81.7C53.9857 78.6088 67.0345 72.5083 87.3763 75.9393V22.571C77.6677 20.8713 68.563 21.2323 60.2992 23.651C59.5386 23.875 58.74 23.437 58.5164 22.6753C58.2935 21.9136 58.7304 21.1156 59.4921 20.8927C68.5268 18.2477 78.4828 17.9341 89.0832 19.9625C89.7604 20.0917 90.2502 20.6843 90.2502 21.3736V77.6583C90.2502 78.0865 90.0587 78.4927 89.7289 78.7656C89.3986 79.039 88.9632 79.1513 88.5434 79.0694C62.6611 74.118 48.5526 85.4215 48.413 85.5364C48.1506 85.7521 47.8268 85.8636 47.4998 85.8636Z" fill="white"/>
<path d="M47.4998 85.8633C47.1732 85.8633 46.8493 85.7515 46.5872 85.5359C46.4493 85.4232 32.2445 74.1351 6.45677 79.0689C6.03706 79.1525 5.60139 79.0385 5.27136 78.765C4.94152 78.4924 4.75 78.086 4.75 77.6577V21.3733C4.75 20.6841 5.24001 20.0913 5.91679 19.9621C16.5175 17.9348 26.4735 18.247 35.5081 20.8924C36.2699 21.1153 36.7063 21.9133 36.4834 22.675C36.2606 23.4367 35.4635 23.8739 34.7008 23.6506C26.4387 21.2321 17.3339 20.8709 7.62375 22.5707V75.9392C27.9648 72.5085 41.0126 78.6073 46.0628 81.699V69.2816C46.0628 68.4881 46.7062 67.8446 47.4998 67.8446C48.2936 67.8446 48.9368 68.488 48.9368 69.2816V84.4265C48.9368 84.9822 48.6164 85.4884 48.1133 85.7259C47.9182 85.8177 47.7082 85.8633 47.4998 85.8633Z" fill="white"/>
<path d="M58.2151 70.3133H36.785C35.9912 70.3133 35.348 69.67 35.348 68.8763V58.9365C35.348 58.1427 35.9912 57.4995 36.785 57.4995H58.2151C59.0085 57.4995 59.6521 58.1427 59.6521 58.9365V68.8763C59.6519 69.67 59.0085 70.3133 58.2151 70.3133ZM38.222 67.4394H56.7781V60.3733H38.222V67.4394Z" fill="white"/>
</svg>
