<svg width="35" height="35" viewBox="0 0 35 35" fill="none" xmlns="http://www.w3.org/2000/svg">
<path d="M17.1429 34.2857C7.71429 34.2857 0 26.5714 0 17.1429C0 7.71429 7.71429 0 17.1429 0C26.5714 0 34.2857 7.71429 34.2857 17.1429C34.2857 26.5714 26.5714 34.2857 17.1429 34.2857ZM17.1429 2.85714C9.28571 2.85714 2.85714 9.28571 2.85714 17.1429C2.85714 25 9.28571 31.4286 17.1429 31.4286C25 31.4286 31.4286 25 31.4286 17.1429C31.4286 9.28571 25 2.85714 17.1429 2.85714Z" fill="#00A8AE"/>
<path d="M26.7143 10.4286C26.1428 9.85714 25.2857 9.85714 24.7143 10.4286L14.2857 20.8571L9.57139 16.1429C8.99996 15.5714 8.14282 15.5714 7.57139 16.1429C6.99997 16.7143 6.99997 17.5714 7.57139 18.1429L13.2857 23.8571C13.8571 24.4286 14.7143 24.4286 15.2857 23.8571L26.7143 12.4286C27.2857 11.8571 27.2857 11 26.7143 10.4286Z" fill="#00A8AE"/>
</svg>
