<svg width="40" height="40" viewBox="0 0 40 40" fill="none" xmlns="http://www.w3.org/2000/svg">
<g opacity="0.4" clip-path="url(#clip0_237_1318)">
<path d="M20 39.7266C9.12266 39.7266 0.273438 30.8773 0.273438 20C0.273438 9.12266 9.12266 0.273438 20 0.273438C30.8773 0.273438 39.7266 9.12266 39.7266 20C39.7266 30.8773 30.8773 39.7266 20 39.7266ZM20 2.22656C10.2 2.22656 2.22656 10.2 2.22656 20C2.22656 29.8 10.2 37.7734 20 37.7734C29.8 37.7734 37.7734 29.8 37.7734 20C37.7734 10.2 29.8 2.22656 20 2.22656Z" fill="white"/>
<path d="M26.4141 31.6648C26.1554 31.6646 25.9072 31.5618 25.7243 31.3788L20 25.6546L14.2758 31.3788C14.1852 31.4695 14.0776 31.5415 13.9592 31.5905C13.8407 31.6396 13.7138 31.6649 13.5856 31.6649C13.4574 31.6649 13.3304 31.6396 13.212 31.5905C13.0936 31.5415 12.986 31.4695 12.8954 31.3788L8.62114 27.1046C8.53045 27.014 8.45851 26.9064 8.40943 26.788C8.36035 26.6695 8.33508 26.5426 8.33508 26.4144C8.33508 26.2862 8.36035 26.1592 8.40943 26.0408C8.45851 25.9224 8.53045 25.8148 8.62114 25.7241L14.3454 19.9999L8.62114 14.2757C8.53045 14.1851 8.45851 14.0775 8.40943 13.959C8.36035 13.8406 8.33508 13.7137 8.33508 13.5855C8.33508 13.4573 8.36035 13.3303 8.40943 13.2119C8.45851 13.0935 8.53045 12.9859 8.62114 12.8952L12.8954 8.62101C12.986 8.53033 13.0936 8.45839 13.212 8.40931C13.3304 8.36022 13.4574 8.33496 13.5856 8.33496C13.7138 8.33496 13.8407 8.36022 13.9592 8.40931C14.0776 8.45839 14.1852 8.53033 14.2758 8.62101L20 14.3452L25.7243 8.62101C25.8149 8.53033 25.9225 8.45839 26.0409 8.40931C26.1593 8.36022 26.2863 8.33496 26.4145 8.33496C26.5427 8.33496 26.6696 8.36022 26.7881 8.40931C26.9065 8.45839 27.0141 8.53033 27.1047 8.62101L31.3789 12.8952C31.4696 12.9859 31.5416 13.0935 31.5907 13.2119C31.6397 13.3303 31.665 13.4573 31.665 13.5855C31.665 13.7137 31.6397 13.8406 31.5907 13.959C31.5416 14.0775 31.4696 14.1851 31.3789 14.2757L25.6547 19.9999L31.3789 25.7241C31.4696 25.8148 31.5416 25.9224 31.5907 26.0408C31.6397 26.1592 31.665 26.2862 31.665 26.4144C31.665 26.5426 31.6397 26.6695 31.5907 26.788C31.5416 26.9064 31.4696 27.014 31.3789 27.1046L27.1047 31.3788C27.014 31.4695 26.9064 31.5414 26.7879 31.5905C26.6694 31.6395 26.5424 31.6648 26.4141 31.6648ZM20 23.2968C20.1284 23.2967 20.2554 23.322 20.374 23.3713C20.4925 23.4205 20.6001 23.4926 20.6907 23.5835L26.4141 29.3069L29.3047 26.4163L23.5813 20.6921C23.4904 20.6015 23.4183 20.4939 23.3691 20.3754C23.3199 20.2569 23.2945 20.1298 23.2945 20.0015C23.2945 19.8732 23.3199 19.7461 23.3691 19.6276C23.4183 19.5091 23.4904 19.4014 23.5813 19.3109L29.3047 13.5874L26.4141 10.6968L20.6899 16.4202C20.5993 16.511 20.4916 16.5831 20.3731 16.6322C20.2546 16.6814 20.1276 16.7067 19.9993 16.7067C19.871 16.7067 19.7439 16.6814 19.6254 16.6322C19.5069 16.5831 19.3993 16.511 19.3086 16.4202L13.586 10.6929L10.6954 13.5835L16.4196 19.307C16.6026 19.4902 16.7054 19.7386 16.7054 19.9976C16.7054 20.2566 16.6026 20.505 16.4196 20.6882L10.6954 26.4124L13.586 29.303L19.3094 23.5796C19.4932 23.3977 19.7415 23.296 20 23.2968Z" fill="white"/>
</g>
<defs>
<clipPath id="clip0_237_1318">
<rect width="40" height="40" fill="white"/>
</clipPath>
</defs>
</svg>
