<svg width="95" height="95" viewBox="0 0 95 95" fill="none" xmlns="http://www.w3.org/2000/svg">
<g clip-path="url(#clip0_228_484)">
<path d="M94.1761 69.1197L84.4386 64.251L78.2414 48.1307C78.1684 47.9401 78.0569 47.7666 77.9139 47.621C77.7709 47.4754 77.5994 47.3609 77.4101 47.2846L38.9574 31.9139C38.6885 31.8068 38.3942 31.7807 38.1107 31.8387C37.8272 31.8968 37.5669 32.0364 37.3617 32.2404L32.2332 37.3689C32.0318 37.5743 31.8945 37.8337 31.8378 38.1157C31.7811 38.3977 31.8076 38.69 31.914 38.9572L47.2847 77.41C47.361 77.5992 47.4755 77.7707 47.6211 77.9138C47.7667 78.0568 47.9402 78.1683 48.1308 78.2412L64.2511 84.4385L69.1199 94.176C69.2224 94.3907 69.375 94.5776 69.5649 94.721C69.7548 94.8643 69.9763 94.96 70.2109 94.9998C70.2899 95.0071 70.3694 95.0071 70.4484 94.9998C70.8414 94.9981 71.2178 94.8407 71.4949 94.5619L94.5621 71.4947C94.7318 71.3309 94.8601 71.129 94.9363 70.9057C95.0124 70.6824 95.0343 70.4442 95 70.2107C94.9601 69.9762 94.8645 69.7546 94.7211 69.5647C94.5777 69.3749 94.3908 69.2222 94.1761 69.1197ZM35.0238 38.7643L35.8476 37.9478L54.9886 57.0889C53.7272 58.8764 53.1823 61.0721 53.4619 63.242C53.7415 65.4118 54.8251 67.3978 56.4984 68.8072C58.1718 70.2165 60.3131 70.9467 62.4988 70.8533C64.6846 70.7599 66.7558 69.8497 68.3028 68.3027C69.8498 66.7557 70.76 64.6845 70.8534 62.4987C70.9468 60.3129 70.2167 58.1716 68.8073 56.4983C67.3979 54.8249 65.412 53.7413 63.2421 53.4618C61.0723 53.1822 58.8765 53.727 57.089 54.9885L37.948 35.8475L38.7644 35.0236L75.7031 49.8006L81.5292 64.9561L64.9562 81.5291L49.8007 75.7029L35.0238 38.7643ZM62.121 56.3541C63.4551 56.3561 64.7472 56.8205 65.7773 57.6683C66.8073 58.5161 67.5115 59.6948 67.77 61.0036C68.0285 62.3124 67.8252 63.6704 67.1947 64.8461C66.5643 66.0218 65.5457 66.9425 64.3126 67.4515C63.0794 67.9605 61.7079 68.0261 60.4317 67.6373C59.1556 67.2485 58.0537 66.4293 57.3138 65.3192C56.5739 64.2091 56.2418 62.8768 56.3741 61.5493C56.5063 60.2218 57.0947 58.9812 58.039 58.0389C59.1227 56.9586 60.5909 56.3526 62.121 56.3541ZM70.8566 91.0068L67.1457 83.585L83.5703 67.1603L90.9921 70.8713L70.8566 91.0068Z" fill="#00A8AE"/>
<path d="M28.3885 79.4137C28.1047 79.1454 27.7289 78.9959 27.3383 78.9959C26.9478 78.9959 26.572 79.1454 26.2881 79.4137L24.403 81.2988C19.3723 74.4711 16.597 66.2439 16.464 57.764C16.3309 49.2841 18.8468 40.974 23.6608 33.9918C25.1031 34.7854 26.7637 35.0903 28.3939 34.8607C30.024 34.6311 31.5358 33.8794 32.7028 32.7183C33.8698 31.5571 34.629 30.0491 34.8668 28.4202C35.1046 26.7912 34.8081 25.1291 34.0217 23.6828C41.0039 18.8688 49.3141 16.3529 57.794 16.486C66.2739 16.619 74.501 19.3943 81.3288 24.425L79.4139 26.2879C79.1379 26.5662 78.9831 26.9424 78.9835 27.3344C78.9823 27.5297 79.0198 27.7234 79.0936 27.9042C79.1675 28.0851 79.2763 28.2496 79.4139 28.3883L85.96 34.8824C86.2381 35.1589 86.6143 35.314 87.0065 35.314C87.3987 35.314 87.7749 35.1589 88.053 34.8824L94.562 28.3734C94.7 28.2356 94.8095 28.0719 94.8842 27.8917C94.9589 27.7115 94.9973 27.5183 94.9973 27.3232C94.9973 27.1282 94.9589 26.935 94.8842 26.7548C94.8095 26.5746 94.7 26.4109 94.562 26.273L88.053 19.764C87.7749 19.4876 87.3987 19.3324 87.0065 19.3324C86.6143 19.3324 86.2381 19.4876 85.96 19.764L83.444 22.2652C77.2431 17.5991 69.9119 14.6674 62.2034 13.7713C54.4948 12.8753 46.6867 14.0471 39.5807 17.1664L48.1381 8.63124C49.1084 9.09486 50.2116 9.19981 51.2519 8.92745C52.2922 8.6551 53.2024 8.02305 53.821 7.14344C54.4397 6.26383 54.7267 5.19353 54.6313 4.1224C54.5358 3.05128 54.0641 2.04858 53.2997 1.2922C52.5353 0.535821 51.5277 0.0746547 50.4556 -0.00948403C49.3835 -0.0936228 48.3163 0.204706 47.4433 0.832576C46.5702 1.46045 45.9478 2.37727 45.6865 3.42039C45.4251 4.46351 45.5417 5.5655 46.0155 6.53084L31.5725 20.9961C30.1061 20.0124 28.3436 19.5684 26.5861 19.7399C24.8286 19.9114 23.1852 20.6877 21.9366 21.9363C20.688 23.185 19.9116 24.8284 19.7401 26.5858C19.5686 28.3433 20.0127 30.1058 20.9963 31.5722L6.53112 46.0152C5.56199 45.543 4.45682 45.4296 3.412 45.6953C2.36718 45.9609 1.45038 46.5884 0.824509 47.4662C0.198636 48.344 -0.095773 49.4152 -0.00640237 50.4896C0.0829683 51.5639 0.550331 52.5718 1.31264 53.3341C2.07494 54.0964 3.08282 54.5638 4.15717 54.6531C5.23152 54.7425 6.30276 54.4481 7.18055 53.8222C8.05833 53.1963 8.68579 52.2795 8.95145 51.2347C9.2171 50.1899 9.10374 49.0847 8.63151 48.1156L17.1889 39.5805C14.0665 46.6845 12.891 54.4915 13.7832 62.2C14.6753 69.9085 17.6029 77.2407 22.2655 83.4437L19.7569 85.9597C19.4804 86.2379 19.3252 86.6141 19.3252 87.0062C19.3252 87.3984 19.4804 87.7746 19.7569 88.0527L26.2659 94.5617C26.543 94.8405 26.9193 94.9979 27.3124 94.9996C27.5082 94.9997 27.7022 94.9611 27.8831 94.886C28.064 94.8108 28.2282 94.7006 28.3663 94.5617L34.8827 88.0527C35.1591 87.7746 35.3143 87.3984 35.3143 87.0062C35.3143 86.6141 35.1591 86.2379 34.8827 85.9597L28.3885 79.4137ZM87.0213 22.8961L91.4299 27.3047L87.0213 31.7133L82.6127 27.3047L87.0213 22.8961ZM48.9842 3.43592C49.2048 3.21355 49.4865 3.06171 49.7935 2.99967C50.1005 2.93763 50.419 2.96818 50.7086 3.08745C50.9982 3.20673 51.2459 3.40934 51.4202 3.66959C51.5944 3.92984 51.6875 4.23599 51.6875 4.5492C51.6875 4.86242 51.5944 5.16857 51.4202 5.42882C51.2459 5.68907 50.9982 5.89168 50.7086 6.01095C50.419 6.13023 50.1005 6.16078 49.7935 6.09874C49.4865 6.0367 49.2048 5.88486 48.9842 5.66249C48.8379 5.51635 48.7218 5.34281 48.6426 5.15179C48.5635 4.96076 48.5227 4.756 48.5227 4.5492C48.5227 4.34241 48.5635 4.13765 48.6426 3.94662C48.7218 3.7556 48.8379 3.58206 48.9842 3.43592ZM24.0467 24.0465C24.4778 23.6134 24.9901 23.2697 25.5544 23.0352C26.1186 22.8007 26.7236 22.68 27.3346 22.68C27.9457 22.68 28.5507 22.8007 29.1149 23.0352C29.6791 23.2697 30.1915 23.6134 30.6225 24.0465C31.2741 24.697 31.718 25.5261 31.8982 26.429C32.0783 27.3319 31.9866 28.268 31.6346 29.1187C31.2826 29.9695 30.6862 30.6967 29.9208 31.2084C29.1553 31.72 28.2553 31.9932 27.3346 31.9932C26.4139 31.9932 25.5139 31.72 24.7485 31.2084C23.9831 30.6967 23.3866 29.9695 23.0346 29.1187C22.6826 28.268 22.5909 27.3319 22.7711 26.429C22.9512 25.5261 23.3952 24.697 24.0467 24.0465ZM5.67018 51.2105C5.36714 51.4632 4.98054 51.5935 4.58635 51.5757C4.19216 51.5579 3.81889 51.3933 3.53987 51.1143C3.26086 50.8353 3.09627 50.462 3.07846 50.0678C3.06065 49.6736 3.1909 49.287 3.44362 48.984C3.74064 48.6921 4.14044 48.5285 4.5569 48.5285C4.97335 48.5285 5.37315 48.6921 5.67018 48.984C5.81649 49.1301 5.93257 49.3036 6.01176 49.4947C6.09096 49.6857 6.13172 49.8905 6.13172 50.0972C6.13172 50.304 6.09096 50.5088 6.01176 50.6998C5.93257 50.8909 5.81649 51.0644 5.67018 51.2105ZM27.3346 91.3851L22.926 86.9765L27.3346 82.5679L31.7432 86.9765L27.3346 91.3851Z" fill="#00A8AE"/>
</g>
<defs>
<clipPath id="clip0_228_484">
<rect width="95" height="95" fill="white"/>
</clipPath>
</defs>
</svg>
