<svg width="100" height="100" viewBox="0 0 100 100" fill="none" xmlns="http://www.w3.org/2000/svg">
<path fill-rule="evenodd" clip-rule="evenodd" d="M69.4179 82.9969H18.4137C15.2023 82.9969 12.5895 80.3843 12.5895 77.1727V23.1274C12.5895 19.916 15.2021 17.3032 18.4137 17.3032H69.4179C72.6293 17.3032 75.2419 19.9158 75.2419 23.1274V41.3416C75.2419 41.9882 74.7177 42.5124 74.0712 42.5124C73.4246 42.5124 72.9005 41.9882 72.9005 41.3416V23.1274C72.9005 21.2071 71.3383 19.6449 69.4179 19.6449H18.4137C16.4933 19.6449 14.9309 21.2071 14.9309 23.1274V77.1729C14.9309 79.0933 16.4931 80.6557 18.4137 80.6557H69.4179C71.3383 80.6557 72.9005 79.0935 72.9005 77.1729V65.6697C72.9005 65.0231 73.4246 64.499 74.0712 64.499C74.7177 64.499 75.2419 65.0231 75.2419 65.6697V77.1729C75.2419 80.3843 72.6291 82.9969 69.4179 82.9969Z" fill="white"/>
<path fill-rule="evenodd" clip-rule="evenodd" d="M49.992 41.2111H37.8393C37.1928 41.2111 36.6686 40.687 36.6686 40.0404V18.474C36.6686 17.8274 37.1928 17.3032 37.8393 17.3032H49.9918C50.6383 17.3032 51.1625 17.8274 51.1625 18.474V40.0404C51.1627 40.687 50.6385 41.2111 49.992 41.2111ZM39.01 38.8697H48.821V19.6447H39.01V38.8697Z" fill="white"/>
<path fill-rule="evenodd" clip-rule="evenodd" d="M74.1814 66.8408C70.6194 66.8408 67.2708 65.4536 64.7521 62.9351C62.2334 60.4164 60.8464 57.0678 60.8464 53.5059C60.8464 49.9439 62.2336 46.5953 64.7521 44.0766C67.2708 41.5579 70.6196 40.1709 74.1814 40.1709C77.7434 40.1709 81.092 41.5579 83.6107 44.0766C86.1294 46.5953 87.5163 49.9439 87.5163 53.5059C87.5163 57.0678 86.1292 60.4164 83.6107 62.9351C81.0922 65.4536 77.7434 66.8408 74.1814 66.8408ZM74.1814 42.5122C68.1196 42.5122 63.1879 47.4439 63.1879 53.5059C63.1879 59.5678 68.1196 64.4994 74.1814 64.4994C80.2432 64.4994 85.1751 59.5676 85.1751 53.5059C85.1751 47.4439 80.2434 42.5122 74.1814 42.5122Z" fill="white"/>
<path fill-rule="evenodd" clip-rule="evenodd" d="M72.4611 58.6949C72.1445 58.6949 71.8408 58.5665 71.6201 58.3384L67.6243 54.2116C67.1745 53.7472 67.1865 53.0059 67.6512 52.5561C68.1156 52.1065 68.8569 52.1183 69.3066 52.5829L72.4282 55.8069L78.531 48.9978C78.9625 48.5163 79.7028 48.4758 80.1843 48.9073C80.6658 49.3388 80.7062 50.0791 80.2747 50.5606L73.3333 58.3057C73.1164 58.5476 72.8089 58.6886 72.4841 58.6949C72.4762 58.6949 72.4686 58.6949 72.4611 58.6949Z" fill="white"/>
<path fill-rule="evenodd" clip-rule="evenodd" d="M33.1677 74.0797H22.108C21.4614 74.0797 20.9373 73.5556 20.9373 72.909C20.9373 72.2625 21.4614 71.7383 22.108 71.7383H33.1677C33.8143 71.7383 34.3385 72.2625 34.3385 72.909C34.3385 73.5556 33.8143 74.0797 33.1677 74.0797Z" fill="white"/>
<path fill-rule="evenodd" clip-rule="evenodd" d="M33.1677 68.3166H22.108C21.4614 68.3166 20.9373 67.7924 20.9373 67.1458C20.9373 66.4993 21.4614 65.9751 22.108 65.9751H33.1677C33.8143 65.9751 34.3385 66.4993 34.3385 67.1458C34.3385 67.7924 33.8143 68.3166 33.1677 68.3166Z" fill="white"/>
</svg>
