<svg width="14" height="28" viewBox="0 0 14 28" fill="none" xmlns="http://www.w3.org/2000/svg">
<path d="M10.625 6.08572H13.0556C13.5763 6.08572 14 5.64101 14 5.09435V0.9946C14 0.447944 13.5763 0.00322656 13.0556 0.00322656H9.71794C9.68595 0.00180468 9.63036 0 9.55247 0C8.92272 0 6.73279 0.130429 4.99539 1.80818C3.09898 3.63983 3.28043 5.83082 3.36025 6.37103V9.04196H0.944427C0.42371 9.04196 0 9.48668 0 10.0333V14.4427C0 14.9894 0.423658 15.4342 0.944427 15.4342H3.22047V27.0086C3.22047 27.5552 3.64413 28 4.1649 28H8.92496C9.44567 28 9.86938 27.5552 9.86938 27.0086V15.4914H12.5654C13.0454 15.4914 13.4488 15.1138 13.5036 14.6133L13.9938 10.1469C14.0246 9.86626 13.9396 9.5844 13.7606 9.37358C13.5815 9.16287 13.3246 9.04201 13.0557 9.04201H9.86959V6.79999C9.86949 6.33674 9.98989 6.08572 10.625 6.08572ZM9.3382 10.1576H12.9229L12.4599 14.3758H9.33804C9.04463 14.3758 8.80669 14.6255 8.80669 14.9336V26.8844H4.28311V14.8764C4.28311 14.5683 4.04518 14.3186 3.75176 14.3186H1.06264V10.1575H3.89159C4.18501 10.1575 4.42294 9.90777 4.42294 9.59972V6.32569C4.42294 6.2937 4.42033 6.26171 4.41512 6.23015C4.35912 5.89246 4.15891 4.13207 5.71496 2.62915C7.16927 1.22472 9.01998 1.11557 9.55253 1.11557C9.62718 1.11557 9.67162 1.11765 9.67975 1.11808C9.6885 1.11852 9.69725 1.11874 9.70601 1.11874H12.9374V4.97026H10.6251C9.48652 4.97026 8.8068 5.65429 8.8068 6.79999V9.59977C8.8068 9.90788 9.04478 10.1576 9.3382 10.1576Z" fill="white"/>
</svg>
