<svg width="84" height="96" viewBox="0 0 84 96" fill="none" xmlns="http://www.w3.org/2000/svg">
<path d="M12.5 12.5C12.4998 12.2264 12.5536 11.9554 12.6582 11.7025C12.7629 11.4497 12.9163 11.22 13.1098 11.0265C13.3033 10.833 13.533 10.6796 13.7859 10.5749C14.0387 10.4703 14.3097 10.4165 14.5833 10.4167H37.5C38.0525 10.4167 38.5824 10.6362 38.9731 11.0269C39.3638 11.4176 39.5833 11.9475 39.5833 12.5C39.5833 13.0525 39.3638 13.5824 38.9731 13.9731C38.5824 14.3638 38.0525 14.5833 37.5 14.5833H14.5833C14.3097 14.5835 14.0387 14.5297 13.7859 14.4251C13.533 14.3204 13.3033 14.167 13.1098 13.9735C12.9163 13.78 12.7629 13.5503 12.6582 13.2975C12.5536 13.0446 12.4998 12.7736 12.5 12.5ZM14.5833 25H60.4167C60.9692 25 61.4991 24.7805 61.8898 24.3898C62.2805 23.9991 62.5 23.4692 62.5 22.9167C62.5 22.3641 62.2805 21.8342 61.8898 21.4435C61.4991 21.0528 60.9692 20.8333 60.4167 20.8333H14.5833C14.0308 20.8333 13.5009 21.0528 13.1102 21.4435C12.7195 21.8342 12.5 22.3641 12.5 22.9167C12.5 23.4692 12.7195 23.9991 13.1102 24.3898C13.5009 24.7805 14.0308 25 14.5833 25ZM14.5833 35.4167H50C50.5525 35.4167 51.0824 35.1972 51.4731 34.8065C51.8638 34.4158 52.0833 33.8859 52.0833 33.3333C52.0833 32.7808 51.8638 32.2509 51.4731 31.8602C51.0824 31.4695 50.5525 31.25 50 31.25H14.5833C14.0308 31.25 13.5009 31.4695 13.1102 31.8602C12.7195 32.2509 12.5 32.7808 12.5 33.3333C12.5 33.8859 12.7195 34.4158 13.1102 34.8065C13.5009 35.1972 14.0308 35.4167 14.5833 35.4167ZM14.5833 45.8333H60.4167C60.9692 45.8333 61.4991 45.6138 61.8898 45.2231C62.2805 44.8324 62.5 44.3025 62.5 43.75C62.5 43.1975 62.2805 42.6676 61.8898 42.2769C61.4991 41.8862 60.9692 41.6667 60.4167 41.6667H14.5833C14.0308 41.6667 13.5009 41.8862 13.1102 42.2769C12.7195 42.6676 12.5 43.1975 12.5 43.75C12.5 44.3025 12.7195 44.8324 13.1102 45.2231C13.5009 45.6138 14.0308 45.8333 14.5833 45.8333ZM37.5 52.0833H14.5833C14.0308 52.0833 13.5009 52.3028 13.1102 52.6935C12.7195 53.0842 12.5 53.6141 12.5 54.1667C12.5 54.7192 12.7195 55.2491 13.1102 55.6398C13.5009 56.0305 14.0308 56.25 14.5833 56.25H37.5C38.0525 56.25 38.5824 56.0305 38.9731 55.6398C39.3638 55.2491 39.5833 54.7192 39.5833 54.1667C39.5833 53.6141 39.3638 53.0842 38.9731 52.6935C38.5824 52.3028 38.0525 52.0833 37.5 52.0833ZM81.5023 60.374L78.5562 63.32L75 66.8763V89.5833C74.9982 91.2404 74.3391 92.829 73.1674 94.0008C71.9957 95.1725 70.407 95.8315 68.75 95.8333H6.25C4.59296 95.8315 3.0043 95.1725 1.83259 94.0008C0.660884 92.829 0.00181975 91.2404 0 89.5833V6.25C0.00181975 4.59296 0.660884 3.0043 1.83259 1.83259C3.0043 0.660884 4.59296 0.00181975 6.25 0H68.75C70.407 0.00181975 71.9957 0.660884 73.1674 1.83259C74.3391 3.0043 74.9982 4.59296 75 6.25V50.0852C76.1099 49.6882 77.3095 49.6134 78.4601 49.8695C79.6108 50.1255 80.6654 50.7019 81.5023 51.5321V51.5342C82.6729 52.7073 83.3302 54.2968 83.3302 55.9541C83.3302 57.6113 82.6729 59.2008 81.5023 60.374ZM75.6104 54.4821L74.3958 55.695L74.3819 55.709L74.1373 55.9531L75.6102 57.4271L77.0833 58.9006L78.556 57.4279C78.7535 57.2354 78.9108 57.0055 79.0188 56.7517C79.1267 56.4979 79.1832 56.2252 79.185 55.9494C79.1867 55.6736 79.1337 55.4002 79.029 55.1451C78.9242 54.8899 78.7699 54.6581 78.5748 54.4631C78.3798 54.2681 78.148 54.1137 77.8928 54.009C77.6377 53.9042 77.3643 53.8512 77.0885 53.8529C76.8127 53.8547 76.54 53.9112 76.2862 54.0191C76.0324 54.1271 75.803 54.2846 75.6104 54.4821ZM72.6644 60.3729L71.191 58.8992L51.0131 79.0792L50.2767 82.7617L53.9583 82.0252L74.1365 61.8471L72.6644 60.3729ZM70.8333 71.0429L56.4596 85.4167C56.1687 85.7071 55.7986 85.9052 55.3956 85.9863L48.0287 87.4592C47.8941 87.4861 47.7571 87.5001 47.6198 87.5008C47.3116 87.5007 47.0073 87.4321 46.7288 87.3002C46.4503 87.1682 46.2046 86.9761 46.0093 86.7377C45.814 86.4993 45.674 86.2206 45.5995 85.9216C45.5249 85.6226 45.5176 85.3107 45.5781 85.0085L47.0531 77.6436C47.1342 77.2406 47.3323 76.8705 47.6227 76.5796L69.7183 54.4792L70.8333 53.365V6.25C70.8329 5.69758 70.6133 5.1679 70.2227 4.77729C69.8321 4.38667 69.3024 4.16705 68.75 4.16667H6.25C5.69758 4.16705 5.1679 4.38667 4.77729 4.77729C4.38667 5.1679 4.16705 5.69758 4.16667 6.25V89.5833C4.16705 90.1358 4.38667 90.6654 4.77729 91.0561C5.1679 91.4467 5.69758 91.6663 6.25 91.6667H68.75C69.3024 91.6663 69.8321 91.4467 70.2227 91.0561C70.6133 90.6654 70.8329 90.1358 70.8333 89.5833V71.0429Z" fill="white"/>
</svg>
