<svg width="20" height="20" viewBox="0 0 20 20" fill="none" xmlns="http://www.w3.org/2000/svg">
<path d="M14.5173 0H5.4827C2.45953 0 0 2.45953 0 5.48273V14.5173C0 17.5405 2.45953 20 5.4827 20H14.5173C17.5405 20 20 17.5405 20 14.5173V5.48273C20 2.45953 17.5405 0 14.5173 0ZM18.8189 14.5173C18.8189 16.8892 16.8893 18.8189 14.5173 18.8189H5.4827C3.11078 18.8189 1.18109 16.8893 1.18109 14.5173V5.48273C1.18109 3.11078 3.11078 1.18109 5.4827 1.18109H14.5173C16.8893 1.18109 18.8189 3.11078 18.8189 5.48273V14.5173Z" fill="white"/>
<path d="M10 4.5144C6.97526 4.5144 4.51443 6.97522 4.51443 9.99999C4.51443 13.0248 6.97522 15.4856 10 15.4856C13.0248 15.4856 15.4856 13.0247 15.4856 9.99995C15.4856 6.97519 13.0248 4.5144 10 4.5144ZM10 14.3045C7.6265 14.3045 5.69549 12.3735 5.69549 9.99995C5.69549 7.62644 7.6265 5.69542 10 5.69542C12.3736 5.69542 14.3046 7.62647 14.3046 9.99999C14.3046 12.3735 12.3736 14.3045 10 14.3045Z" fill="white"/>
<path d="M15.8136 2.51953C14.8946 2.51953 14.147 3.26723 14.147 4.18621C14.147 5.1052 14.8946 5.85285 15.8136 5.85285C16.7326 5.85285 17.4803 5.10516 17.4803 4.18617C17.4803 3.26719 16.7326 2.51953 15.8136 2.51953ZM15.8136 4.67172C15.5459 4.67172 15.3281 4.45391 15.3281 4.18617C15.3281 3.91844 15.5459 3.70062 15.8136 3.70062C16.0813 3.70062 16.2992 3.91848 16.2992 4.18617C16.2992 4.45387 16.0813 4.67172 15.8136 4.67172Z" fill="white"/>
</svg>
