<svg width="95" height="95" viewBox="0 0 95 95" fill="none" xmlns="http://www.w3.org/2000/svg">
<g clip-path="url(#clip0_228_492)">
<path d="M94.8824 46.3953C94.6477 45.837 94.101 45.4739 93.4952 45.4739H89.0302C88.5588 36.046 84.8961 27.0277 78.6287 19.9367C72.2013 12.6649 63.4389 7.8533 53.9101 6.34629L47.9199 0.482449C47.4868 0.0586598 46.8419 -0.0645433 46.2839 0.170545C45.7256 0.405447 45.3625 0.952253 45.3625 1.55769V5.87778C39.587 6.14534 34.0442 7.57591 28.8654 10.1376C28.1206 10.5061 27.8155 11.4087 28.184 12.1535C28.5523 12.8985 29.455 13.2032 30.2 12.835C35.4142 10.2556 41.028 8.91259 46.8849 8.84356C47.7091 8.83391 48.3719 8.16298 48.3719 7.33915V5.13615L60.271 16.7842L48.3719 28.4325V26.628C48.3719 26.2232 48.2088 25.8354 47.9194 25.5522C47.6301 25.2691 47.2406 25.1157 46.8335 25.1236C40.7101 25.2611 35.0357 27.8096 30.8563 32.2998C30.2902 32.9081 30.3241 33.8603 30.9325 34.4266C31.2224 34.6964 31.5901 34.8298 31.9573 34.8298C32.3603 34.8298 32.7626 34.6687 33.0589 34.3503C36.3275 30.8387 40.6506 28.6974 45.3625 28.2262V32.0109C45.3625 32.6166 45.7256 33.1632 46.2839 33.3981C46.8426 33.633 47.487 33.5098 47.9199 33.0862L52.33 28.7689C60.1551 30.8216 65.864 37.4775 66.7472 45.4737H63.042C62.4364 45.4737 61.8895 45.8368 61.6548 46.3951C61.4201 46.9534 61.5429 47.598 61.9666 48.0309L66.2748 52.432C65.2793 56.3697 63.0388 59.9524 59.9072 62.588C56.9278 65.0954 53.2368 66.6542 49.3779 67.0593V62.9893C49.3779 62.3837 49.0148 61.837 48.4565 61.6021C47.8984 61.3676 47.2534 61.4904 46.8205 61.9141L42.1663 66.47C34.3331 64.326 28.6898 57.5763 27.9198 49.5334H31.9571C32.5627 49.5334 33.1096 49.1701 33.3443 48.612C33.579 48.0537 33.4562 47.4091 33.0326 46.9762L28.5462 42.3932C28.9886 40.8059 29.6304 39.2807 30.462 37.8507C30.8797 37.1322 30.636 36.2114 29.9174 35.7937C29.199 35.3755 28.2781 35.62 27.8604 36.3383C27.1869 37.4965 26.6206 38.7083 26.166 39.9616L17.8062 31.4218C17.5231 31.1328 17.1356 30.9697 16.7311 30.9697C16.3267 30.9697 15.9389 31.1328 15.6561 31.4218L10.0437 37.155C11.9472 30.3516 15.7142 24.12 20.933 19.2496C21.7936 18.4465 22.7011 17.6736 23.6313 16.9518C24.294 16.4376 24.9813 15.9392 25.674 15.4706C26.3623 15.0048 26.5427 14.0693 26.0768 13.3811C25.6109 12.6927 24.6753 12.5124 23.9873 12.9781C23.2411 13.4833 22.5005 14.0201 21.7862 14.5744C20.7842 15.3518 19.8064 16.1844 18.8796 17.0496C12.0403 23.4324 7.51726 31.9859 6.10265 41.1812L0.429557 46.976C0.00576758 47.4087 -0.117065 48.0533 0.117838 48.6118C0.352555 49.17 0.89899 49.5333 1.50499 49.5333H5.66105C6.10711 59.0232 9.78223 68.0965 16.0977 75.2265C22.5735 82.5376 31.3997 87.3488 40.9973 88.8163L46.8215 94.5174C47.1083 94.7981 47.4881 94.947 47.8743 94.947C48.0708 94.947 48.2689 94.9086 48.4573 94.8293C49.0156 94.5944 49.3787 94.0476 49.3787 93.4422V89.2501C58.8121 88.7929 67.838 85.141 74.94 78.8792C82.222 72.4587 87.0447 63.6994 88.5615 54.1693L94.5708 48.0305C94.9943 47.5982 95.1171 46.9536 94.8824 46.3953ZM18.3504 73.2313C12.1853 66.2711 8.73204 57.3143 8.62683 48.0116C8.61755 47.1874 7.94643 46.5239 7.12223 46.5239H5.08326L16.7313 34.6246L28.3794 46.5239H26.3295C25.9259 46.5239 25.5391 46.6862 25.2559 46.974C24.973 47.2622 24.8177 47.6518 24.8249 48.0554C24.9939 57.5235 30.999 65.7363 39.7295 68.8557L31.2661 77.1406C30.9771 77.4237 30.8142 77.8113 30.8142 78.2156C30.8142 78.2663 30.8168 78.3166 30.8218 78.3663C30.8568 78.7153 31.0134 79.0432 31.2663 79.2907L36.9806 84.8846C29.8276 82.8977 23.3385 78.8628 18.3504 73.2313ZM72.9492 76.6223C66.0152 82.7361 57.1028 86.1685 47.8542 86.2871C47.0308 86.2975 46.3687 86.9683 46.3687 87.7915V89.8639L42.7554 86.3268L42.7552 86.3266L34.4696 78.2158L43.6692 69.2101L43.6698 69.2094L46.3685 66.5676V68.6633C46.3685 69.0689 46.5322 69.4569 46.8224 69.7402C47.1126 70.0234 47.5037 70.1707 47.9103 70.1675C53.0009 70.0425 57.9498 68.1685 61.8448 64.8902C64.9956 62.2388 67.3652 58.7546 68.6824 54.8913L77.1931 63.5855C77.4762 63.8745 77.8636 64.0376 78.2681 64.0376C78.6726 64.0376 79.0604 63.8745 79.3432 63.5855L84.5843 58.2322C82.5602 65.296 78.5335 71.6987 72.9492 76.6223ZM78.2687 60.3824L66.6206 48.4832H68.3609C68.7681 48.4832 69.158 48.3183 69.4413 48.0259C69.7248 47.7336 69.8775 47.3388 69.8649 46.9317C69.571 37.5132 63.4977 29.4005 54.7799 26.3711L63.4747 17.8597C63.7276 17.6119 63.8842 17.2843 63.9192 16.9353C63.9243 16.8853 63.9269 16.8351 63.9269 16.7846C63.9269 16.3799 63.7638 15.9925 63.4749 15.7095L57.9652 10.3161C65.0333 12.3313 71.443 16.351 76.3743 21.9302C82.4938 28.8537 85.9368 37.7573 86.0695 47.0005C86.0813 47.8231 86.7513 48.4838 87.5739 48.4838H89.9171L78.2687 60.3824Z" fill="#00A8AE"/>
</g>
<defs>
<clipPath id="clip0_228_492">
<rect width="95" height="95" fill="white"/>
</clipPath>
</defs>
</svg>
