<svg width="20" height="25" viewBox="0 0 20 25" fill="none" xmlns="http://www.w3.org/2000/svg">
<path d="M10.3346 0C3.58797 0 0 4.32341 0 9.03762C0 11.2239 1.22163 13.9503 3.17717 14.815C3.47411 14.9488 3.63566 14.8919 3.70182 14.6165C3.76029 14.4073 4.01723 13.3995 4.14186 12.9241C4.18032 12.7718 4.16032 12.6394 4.03723 12.4963C3.38795 11.7455 2.87253 10.3777 2.87253 9.09455C2.87253 5.8066 5.48658 2.61405 9.93461 2.61405C13.7811 2.61405 16.472 5.1127 16.472 8.68682C16.472 12.7256 14.3349 15.5197 11.5578 15.5197C10.0208 15.5197 8.87607 14.3134 9.23917 12.821C9.67767 11.0439 10.5377 9.13301 10.5377 7.85137C10.5377 6.70205 9.88845 5.75121 8.5622 5.75121C6.99746 5.75121 5.72813 7.30056 5.72813 9.38072C5.72813 10.7024 6.19586 11.5947 6.19586 11.5947C6.19586 11.5947 4.64805 17.8475 4.36034 19.0153C3.87414 20.9924 4.42649 24.1942 4.47419 24.4696C4.50342 24.6219 4.67421 24.6696 4.7696 24.545C4.92192 24.3449 6.79283 21.6755 7.31749 19.7461C7.50827 19.043 8.29141 16.192 8.29141 16.192C8.80683 17.1229 10.2946 17.9029 11.8794 17.9029C16.5936 17.9029 20 13.7595 20 8.61759C19.9831 3.68798 15.7643 0 10.3346 0Z" fill="white"/>
</svg>
