<svg width="95" height="95" viewBox="0 0 95 95" fill="none" xmlns="http://www.w3.org/2000/svg">
<path fill-rule="evenodd" clip-rule="evenodd" d="M13.615 58.4852H5.82726C5.78133 58.4861 5.73754 58.5047 5.70506 58.5372C5.67258 58.5697 5.65393 58.6135 5.65303 58.6594V75.6782C5.65393 75.7241 5.67258 75.7679 5.70506 75.8004C5.73754 75.8328 5.78133 75.8515 5.82726 75.8524H13.615C13.661 75.8515 13.7047 75.8328 13.7372 75.8004C13.7697 75.7679 13.7884 75.7241 13.7893 75.6782V58.6594C13.7884 58.6135 13.7697 58.5697 13.7372 58.5372C13.7047 58.5047 13.661 58.4861 13.615 58.4852ZM52.3255 86.3337C52.175 86.3808 52.0167 86.3974 51.8597 86.3826C51.7027 86.3678 51.5503 86.3219 51.4112 86.2475C51.2722 86.1732 51.1494 86.0719 51.0499 85.9496C50.9504 85.8273 50.8763 85.6864 50.8318 85.5351C50.7874 85.3838 50.7735 85.2252 50.791 85.0686C50.8085 84.9119 50.857 84.7602 50.9337 84.6225C51.0105 84.4847 51.1138 84.3637 51.2379 84.2663C51.3619 84.1689 51.504 84.0973 51.656 84.0554C51.9112 83.9797 51.9041 83.9827 51.9546 83.9675C52.1116 83.9196 51.9162 83.9777 52.2515 83.873C52.4004 83.8266 52.5571 83.81 52.7125 83.8241C52.8679 83.8383 53.019 83.8829 53.1571 83.9554C53.2953 84.0279 53.4178 84.127 53.5177 84.2468C53.6176 84.3667 53.6929 84.5051 53.7393 84.6541C53.7857 84.8031 53.8023 84.9597 53.7881 85.1151C53.774 85.2705 53.7294 85.4216 53.6569 85.5597C53.5843 85.6979 53.4853 85.8204 53.3654 85.9203C53.2456 86.0202 53.1072 86.0955 52.9582 86.1419C52.827 86.1829 53.0046 86.1263 52.6428 86.2363C52.3876 86.3143 52.3752 86.3189 52.3257 86.3337H52.3255ZM58.3795 84.0649C58.2379 84.1296 58.0848 84.1658 57.9292 84.1714C57.7736 84.1769 57.6184 84.1518 57.4724 84.0974C57.3265 84.043 57.1927 83.9604 57.0787 83.8543C56.9647 83.7482 56.8727 83.6207 56.808 83.479C56.7433 83.3374 56.7071 83.1843 56.7015 83.0287C56.696 82.8731 56.7211 82.7179 56.7755 82.5719C56.8299 82.426 56.9125 82.2922 57.0186 82.1782C57.1247 82.0642 57.2522 81.9722 57.3939 81.9075C63.4635 79.1315 68.8363 75.0347 73.1201 69.9165C77.4324 64.7812 80.5541 58.7547 82.2611 52.2697C82.2992 52.118 82.3671 51.9752 82.4606 51.8497C82.5542 51.7243 82.6717 51.6186 82.8063 51.5387C82.9409 51.4588 83.09 51.4064 83.2449 51.3844C83.3999 51.3624 83.5577 51.3713 83.7092 51.4105C83.8607 51.4498 84.0029 51.5186 84.1277 51.6131C84.2525 51.7076 84.3574 51.8258 84.4363 51.961C84.5152 52.0962 84.5665 52.2456 84.5874 52.4007C84.6083 52.5559 84.5983 52.7136 84.5579 52.8648C82.7633 59.6909 79.4795 66.035 74.9424 71.4416C70.4302 76.8303 64.7714 81.1431 58.3791 84.0649H58.3795ZM14.5697 56.29C13.841 53.9032 13.281 51.4681 12.8938 49.0028C12.4699 46.3169 12.256 43.6019 12.2539 40.8827V15.0772C12.2539 14.7991 12.3513 14.5297 12.5293 14.3158C12.7072 14.102 12.9544 13.9572 13.228 13.9066L51.6653 2.82949C51.8838 2.76677 52.1158 2.76851 52.3333 2.8345L90.8623 13.9382C91.1099 14.0089 91.3277 14.1583 91.4828 14.3638C91.6379 14.5693 91.7218 14.8198 91.7219 15.0772H91.7271V40.8831C91.7271 52.644 87.7265 64.1058 80.6177 73.3538C73.5334 82.6073 63.5636 89.232 52.2882 92.1781C52.0855 92.2309 51.8724 92.2288 51.6707 92.1722C42.7917 89.8499 34.6807 85.2305 28.1536 78.7786H19.5316C18.0774 78.7825 16.6683 78.2735 15.5523 77.3412C15.5102 77.3904 15.466 77.4377 15.4204 77.4835C15.1836 77.7212 14.9023 77.9097 14.5925 78.0384C14.2827 78.167 13.9505 78.2332 13.615 78.2331H5.82726C5.15 78.232 4.5008 77.9625 4.02192 77.4835C3.54305 77.0046 3.27354 76.3554 3.27246 75.6782V58.6594C3.27354 57.9822 3.54305 57.333 4.02192 56.854C4.5008 56.3751 5.15 56.1056 5.82726 56.1044H13.615C13.9422 56.1042 14.2664 56.1672 14.5697 56.29ZM31.617 78.7783C37.4466 84.0037 44.4266 87.7803 51.99 89.8012C62.6365 86.9482 72.0412 80.6556 78.7401 71.9028C85.5874 63.0087 89.3152 52.1072 89.3475 40.8827V15.9671L51.9902 5.20152L14.6344 15.9671V40.8831C14.6336 43.4807 14.8351 46.0744 15.2371 48.6406C15.552 50.6429 15.9867 52.6244 16.5387 54.5746L16.7591 54.4137C18.7693 52.9479 21.2792 51.1179 20.1129 45.4028C20.1068 45.3759 20.1012 45.3489 20.0967 45.3212C19.6277 42.4677 20.3968 40.566 21.734 39.5399C22.5075 38.9596 23.4541 38.6569 24.4209 38.6809C25.4055 38.7012 26.3702 38.9613 27.2316 39.4386C29.5036 40.6655 31.5006 43.3722 31.5006 47.2257V54.8797H38.9114L41.1116 45.9042L29.7571 36.3001C29.5767 36.1476 29.4459 35.9447 29.3815 35.7175C29.317 35.4903 29.3218 35.249 29.3951 35.0244C29.4685 34.7999 29.6072 34.6024 29.7934 34.4571C29.9797 34.3118 30.205 34.2254 30.4406 34.2088V34.2077L45.2703 33.1118L50.8934 19.351C50.9821 19.1327 51.1339 18.9458 51.3294 18.8143C51.5248 18.6827 51.7551 18.6124 51.9907 18.6124C52.2263 18.6124 52.4565 18.6827 52.652 18.8143C52.8474 18.9458 52.9992 19.1327 53.0879 19.351L58.7111 33.1118L73.5407 34.2077C73.7805 34.2246 74.0095 34.3137 74.1975 34.4634C74.3855 34.6131 74.5238 34.8163 74.594 35.0461C74.6642 35.276 74.6631 35.5217 74.5908 35.7509C74.5185 35.9801 74.3784 36.182 74.189 36.33L62.8707 45.9042L66.4115 60.3496C66.4675 60.5811 66.4526 60.8241 66.3686 61.047C66.2847 61.2699 66.1355 61.4623 65.9407 61.5993C65.7458 61.7362 65.5142 61.8113 65.276 61.8148C65.0379 61.8183 64.8042 61.7501 64.6054 61.6189L51.9902 53.8055L45.2873 57.9571C45.6645 58.6502 45.8757 59.4213 45.9043 60.2099C45.9033 60.3904 45.8863 60.5704 45.8534 60.7479L43.4955 73.7989C43.2664 75.1706 42.5953 76.4297 41.5844 77.3846C40.5935 78.2956 39.2925 78.7944 37.9465 78.7794L31.617 78.7783ZM42.7325 58.3657C42.7229 58.3546 42.714 58.3434 42.7043 58.3319C42.283 57.8014 41.6897 57.4345 41.0268 57.2945C40.881 57.2701 40.7334 57.2585 40.5856 57.26H30.3102C29.9945 57.26 29.6917 57.1345 29.4685 56.9113C29.2453 56.688 29.1199 56.3853 29.1199 56.0696V47.2257C29.1199 44.3668 27.7097 42.397 26.1064 41.5309C25.5885 41.2367 25.0069 41.0724 24.4116 41.0521C23.9692 41.0355 23.5339 41.1677 23.1753 41.4275C22.4972 41.9481 22.1346 43.0809 22.4402 44.9399V44.9418C23.906 52.1347 20.7122 54.4642 18.1541 56.3293C17.0844 57.1086 16.17 57.7766 16.17 58.6594V73.6874C16.1794 74.0422 16.2661 74.3906 16.424 74.7084C16.582 75.0262 16.8074 75.3057 17.0846 75.5273C17.772 76.0972 18.6388 76.4056 19.5317 76.3979H37.9476C38.7005 76.4095 39.4295 76.1336 39.9861 75.6264C40.6119 75.0253 41.0247 74.2366 41.1619 73.3798L43.5196 60.3286C43.5236 60.2889 43.525 60.249 43.5239 60.2091C43.5239 59.7408 43.2827 59.0923 42.8411 58.5037C42.8059 58.4571 42.7698 58.4112 42.7327 58.3661L42.7325 58.3657ZM43.8017 56.0876L51.3469 51.4149C51.5353 51.2932 51.7543 51.2275 51.9785 51.2252C52.2028 51.2229 52.423 51.2843 52.6138 51.4021L63.4143 58.0917L60.4042 45.8114C60.338 45.59 60.3378 45.354 60.4037 45.1324C60.4696 44.9109 60.5988 44.7134 60.7753 44.5642L70.4703 36.363L57.8104 35.4275V35.4236C57.5896 35.408 57.3775 35.3308 57.1982 35.2008C57.019 35.0708 56.8798 34.8932 56.7964 34.6881L51.9908 22.9274L47.2222 34.5966C47.1508 34.8247 47.0124 35.026 46.8249 35.1742C46.6375 35.3224 46.4097 35.4107 46.1713 35.4275L33.5114 36.363L43.2062 44.5642C43.3742 44.7064 43.4992 44.8926 43.5675 45.1018C43.6358 45.311 43.6446 45.5351 43.5929 45.7491L41.3398 54.9427C41.3753 54.9483 41.4107 54.9544 41.4463 54.9613C42.3167 55.1237 43.129 55.5123 43.8017 56.0879V56.0876Z" fill="#00A8AE"/>
</svg>
