<svg width="39" height="45" viewBox="0 0 39 45" fill="none" xmlns="http://www.w3.org/2000/svg">
<path d="M13.9286 9.75C13.9286 6.67701 16.427 4.17857 19.5 4.17857C22.573 4.17857 25.0714 6.67701 25.0714 9.75V13.9286H13.9286V9.75ZM9.75 13.9286H4.17857C1.87165 13.9286 0 15.8002 0 18.1071V36.2143C0 40.8281 3.7433 44.5714 8.35714 44.5714H30.6429C35.2567 44.5714 39 40.8281 39 36.2143V18.1071C39 15.8002 37.1283 13.9286 34.8214 13.9286H29.25V9.75C29.25 4.36138 24.8886 0 19.5 0C14.1114 0 9.75 4.36138 9.75 9.75V13.9286ZM11.8393 18.1071C12.9971 18.1071 13.9286 19.0386 13.9286 20.1964C13.9286 21.3542 12.9971 22.2857 11.8393 22.2857C10.6815 22.2857 9.75 21.3542 9.75 20.1964C9.75 19.0386 10.6815 18.1071 11.8393 18.1071ZM25.0714 20.1964C25.0714 19.0386 26.0029 18.1071 27.1607 18.1071C28.3185 18.1071 29.25 19.0386 29.25 20.1964C29.25 21.3542 28.3185 22.2857 27.1607 22.2857C26.0029 22.2857 25.0714 21.3542 25.0714 20.1964Z" fill="white"/>
</svg>
