<svg width="13" height="10" viewBox="0 0 13 10" fill="none" xmlns="http://www.w3.org/2000/svg">
<path d="M12.565 5.36664C12.8775 5.05414 12.8775 4.54664 12.565 4.23414L8.565 0.23414C8.2525 -0.0783595 7.745 -0.0783595 7.4325 0.23414C7.12 0.54664 7.12 1.05414 7.4325 1.36664L10.0675 4.00164L0.8 4.00164C0.3575 4.00164 6.25385e-08 4.35914 5.72618e-08 4.80164C5.1985e-08 5.24414 0.3575 5.60164 0.8 5.60164L10.0675 5.60164L7.4325 8.23664C7.12 8.54914 7.12 9.05664 7.4325 9.36914C7.745 9.68164 8.2525 9.68164 8.565 9.36914L12.565 5.36914L12.565 5.36664Z" fill="white"/>
</svg>
