<svg width="20" height="20" viewBox="0 0 20 20" fill="none" xmlns="http://www.w3.org/2000/svg">
<path d="M11.4286 1.42857C11.4286 0.638393 10.7902 0 10 0C9.20982 0 8.57143 0.638393 8.57143 1.42857V8.57143H1.42857C0.638393 8.57143 0 9.20982 0 10C0 10.7902 0.638393 11.4286 1.42857 11.4286H8.57143V18.5714C8.57143 19.3616 9.20982 20 10 20C10.7902 20 11.4286 19.3616 11.4286 18.5714V11.4286H18.5714C19.3616 11.4286 20 10.7902 20 10C20 9.20982 19.3616 8.57143 18.5714 8.57143H11.4286V1.42857Z" fill="white"/>
</svg>
