<svg width="30" height="30" viewBox="0 0 30 30" fill="none" xmlns="http://www.w3.org/2000/svg">
<path d="M14.9958 0C6.71791 0 4.06146e-06 6.71726 0 14.9943C0 23.2714 6.71791 29.9971 14.9958 29.9971C23.2737 29.9971 30 23.2714 30 14.9943C30 6.71726 23.2737 0 14.9958 0ZM14.9958 1.06714C22.6947 1.06714 28.9328 7.29624 28.9328 14.9943C28.9328 22.6925 22.6947 28.9299 14.9958 28.9299C7.29695 28.9299 1.06724 22.6925 1.06724 14.9943C1.06725 7.29624 7.29695 1.06714 14.9958 1.06714ZM6.35114 5.33779C6.14948 5.50747 5.95494 5.68734 5.7673 5.86926C5.55996 6.07541 5.55636 6.40973 5.75893 6.62044C5.96339 6.82955 6.29775 6.83606 6.51019 6.6351C6.67974 6.4707 6.85719 6.31572 7.03962 6.16221C7.26846 5.9707 7.29674 5.62913 7.1024 5.40266C6.88167 5.15549 6.58189 5.16268 6.35114 5.33779ZM4.27107 7.6562C3.53537 8.74538 2.96907 9.97657 2.56348 11.3263C2.48123 11.61 2.64409 11.9067 2.92759 11.9896C3.20879 12.0725 3.50444 11.914 3.59096 11.6339C3.96959 10.3739 4.48995 9.24626 5.15834 8.25673C5.32328 8.01167 5.2587 7.67936 5.01395 7.51391C4.73018 7.33398 4.43468 7.42496 4.27107 7.6562ZM7.34933 7.4616L12.3005 14.8876L7.47489 22.5355H12.6249L14.8619 18.7147L17.394 22.5355H22.6528L17.6618 15.0529L22.4393 7.4616H17.2977L15.1004 11.2091L12.6081 7.4616H7.34933ZM9.34989 8.53711H12.0306L15.1549 13.243L17.9067 8.53711H20.5015L16.3895 15.0697L20.6438 21.46H17.9715L14.7991 16.6976L12.0159 21.46H9.42104L13.5728 14.8709L9.34989 8.53711Z" fill="white"/>
</svg>
